<svg width="22" height="18" viewBox="0 0 22 18" fill="none" xmlns="http://www.w3.org/2000/svg">
<mask id="mask0_1630_14671" style="mask-type:alpha" maskUnits="userSpaceOnUse" x="0" y="0" width="22" height="18">
<rect width="22" height="18" fill="#D9D9D9"/>
</mask>
<g mask="url(#mask0_1630_14671)">
<path d="M17.733 11.0956C17.7399 11.0205 17.7434 10.9463 17.7434 10.8721C17.7418 10.1988 17.4788 9.55365 17.0121 9.07789C16.5453 8.60213 15.9129 8.3346 15.2533 8.3339C14.7909 8.33278 14.3375 8.4647 13.9451 8.71455C13.7028 7.26791 12.4042 6.18514 10.8831 6.2708C9.43647 6.34411 8.28747 7.42423 8.10231 8.8117C7.84423 8.71675 7.57201 8.66805 7.29767 8.66774C6.63739 8.66867 6.00443 8.93689 5.53762 9.41355C5.07081 9.89022 4.80828 10.5364 4.80759 11.2104C4.80759 11.2395 4.80759 11.2696 4.80759 11.2987C4.11542 11.4921 3.1135 11.9028 3.11609 13.3547C3.11609 14.4331 3.99515 15.3587 5.1926 15.417L17.6975 15.3569C18.1691 15.188 18.5753 14.8696 18.8569 14.4482C19.1385 14.0268 19.2807 13.5245 19.2627 13.0147C19.222 12.1201 18.6051 11.3632 17.733 11.0956Z" fill="#3842B9"/>
<path d="M16.6169 10.8295C16.6238 10.7545 16.6273 10.6803 16.6273 10.6061C16.6257 9.93279 16.3627 9.2876 15.896 8.81184C15.4292 8.33608 14.7968 8.06854 14.1372 8.06785C13.6748 8.06673 13.2214 8.19865 12.829 8.44849C12.5867 7.00185 11.2881 5.91908 9.76702 6.00475C8.32038 6.07805 7.17138 7.15818 6.98623 8.54564C6.72814 8.4507 6.45592 8.402 6.18158 8.40168C5.5213 8.40262 4.88834 8.67084 4.42153 9.1475C3.95473 9.62416 3.69219 10.2704 3.6915 10.9443C3.6915 10.9735 3.6915 11.0035 3.6915 11.0327C2.99933 11.2261 1.99741 11.6368 2.00001 13.0887C2.00001 14.167 2.87906 15.0926 4.07651 15.1509L16.5814 15.0908C17.053 14.922 17.4592 14.6035 17.7409 14.1821C18.0225 13.7607 18.1646 13.2584 18.1466 12.7487C18.1059 11.854 17.489 11.0971 16.6169 10.8295Z" fill="#CDCFEE"/>
</g>
</svg>
