<svg width="22" height="18" viewBox="0 0 22 18" fill="none" xmlns="http://www.w3.org/2000/svg">
<path d="M9.86075 4.02702C9.89382 4.07139 9.93496 4.10814 9.9817 4.13503C10.0284 4.16193 10.0798 4.17843 10.1327 4.18352C10.1855 4.18861 10.2388 4.18219 10.2893 4.16465C10.3398 4.14711 10.3864 4.11881 10.4264 4.08147C10.4663 4.04413 10.4988 3.99852 10.5218 3.94739C10.5448 3.89627 10.5578 3.84069 10.5602 3.78403C10.5625 3.72736 10.554 3.67078 10.5353 3.6177C10.5166 3.56462 10.488 3.51615 10.4512 3.47522L9.86559 2.9954C9.83253 2.95114 9.79143 2.91449 9.74477 2.88765C9.69811 2.86081 9.64685 2.84434 9.59407 2.83923C9.54129 2.83413 9.4881 2.84049 9.43768 2.85794C9.38727 2.87539 9.34067 2.90356 9.30072 2.94076C9.26076 2.97796 9.22828 3.02341 9.2052 3.07439C9.18213 3.12536 9.16894 3.1808 9.16645 3.23736C9.16396 3.29392 9.17221 3.35044 9.19071 3.4035C9.20921 3.45656 9.23756 3.50508 9.27408 3.54612L9.86075 4.02702Z" fill="#F6CD4B"/>
<path d="M14.8292 2.51515C14.8807 2.51486 14.9317 2.50373 14.9793 2.48238C15.0268 2.46104 15.0699 2.42989 15.1062 2.39073C15.1425 2.35157 15.1712 2.30516 15.1907 2.25415C15.2102 2.20314 15.22 2.14853 15.2198 2.09344L15.1883 0.43847C15.1906 0.381508 15.182 0.324647 15.1631 0.271345C15.1441 0.218042 15.1152 0.169412 15.0782 0.128404C15.0411 0.0873955 14.9966 0.0548661 14.9474 0.0327951C14.8982 0.0107242 14.8453 -0.000428777 14.792 1.2607e-05C14.7386 0.000453991 14.6859 0.0124801 14.637 0.0353624C14.5881 0.0582446 14.5441 0.0915049 14.5077 0.133121C14.4712 0.174738 14.443 0.223843 14.4249 0.277452C14.4067 0.331061 14.3989 0.388056 14.402 0.444975L14.4345 2.09778C14.4345 2.15295 14.4447 2.20758 14.4646 2.25851C14.4845 2.30943 14.5136 2.35563 14.5503 2.39445C14.587 2.43326 14.6306 2.46391 14.6784 2.48463C14.7263 2.50535 14.7775 2.51572 14.8292 2.51515Z" fill="#F6CD4B"/>
<path d="M21.4393 10.853L20.5143 10.2051C20.4462 10.1203 20.3498 10.0677 20.2463 10.0588C20.1428 10.0499 20.0406 10.0854 19.9622 10.1576C19.8838 10.2297 19.8357 10.3326 19.8284 10.4436C19.8211 10.5546 19.8552 10.6645 19.9233 10.7493L20.8477 11.3958C20.9174 11.4751 21.0127 11.5228 21.1136 11.529C21.2146 11.5352 21.3136 11.4994 21.3899 11.4291C21.4662 11.3589 21.5141 11.2594 21.5235 11.1516C21.5329 11.0437 21.5031 10.9357 21.4404 10.85L21.4393 10.853Z" fill="#F6CD4B"/>
<path d="M21.5431 5.67854L19.9843 6.23143C19.9331 6.23776 19.8835 6.25482 19.8384 6.28162C19.7934 6.30842 19.7537 6.34444 19.7217 6.38762C19.657 6.47484 19.6273 6.58595 19.6393 6.6965C19.6513 6.80705 19.7039 6.90799 19.7855 6.97711C19.8259 7.01134 19.8723 7.03672 19.9219 7.05182C19.9715 7.06691 20.0234 7.07142 20.0746 7.06509L21.6334 6.51546C21.6865 6.51161 21.7384 6.49628 21.7858 6.47039C21.8333 6.4445 21.8753 6.4086 21.9094 6.36485C21.9434 6.3211 21.9688 6.27042 21.984 6.21587C21.9992 6.16132 22.0039 6.10404 21.9978 6.0475C21.9917 5.99096 21.9749 5.93633 21.9485 5.88693C21.922 5.83752 21.8864 5.79437 21.8439 5.76008C21.8014 5.72579 21.7528 5.70107 21.7011 5.68743C21.6494 5.67379 21.5956 5.6715 21.5431 5.68071V5.67854Z" fill="#F6CD4B"/>
<path d="M19.0458 3.30066L20.21 1.41875C20.2417 1.37547 20.2651 1.32595 20.2789 1.273C20.2927 1.22004 20.2966 1.16471 20.2904 1.11015C20.2842 1.05559 20.2679 1.00287 20.2427 0.955001C20.2174 0.907136 20.1835 0.865058 20.143 0.831176C20.1025 0.797293 20.0561 0.772266 20.0066 0.757525C19.957 0.742783 19.9052 0.738617 19.8542 0.745261C19.8031 0.751905 19.7538 0.769231 19.709 0.796249C19.6642 0.823267 19.6248 0.859447 19.5931 0.902726L18.4218 2.78572C18.3872 2.8288 18.3611 2.87894 18.3452 2.9331C18.3293 2.98726 18.3238 3.04432 18.3291 3.1008C18.3344 3.15729 18.3504 3.21204 18.3761 3.26174C18.4018 3.31144 18.4366 3.35505 18.4786 3.38993C18.5205 3.42481 18.5686 3.45023 18.62 3.46466C18.6714 3.47909 18.725 3.48224 18.7775 3.47389C18.8301 3.46554 18.8805 3.44589 18.9257 3.41611C18.971 3.38633 19.0101 3.34706 19.0407 3.30066H19.0458Z" fill="#F6CD4B"/>
<path d="M18.7408 14.8649C18.7549 15.4424 18.5589 16.0031 18.1939 16.4293C18.0397 16.6187 17.8519 16.7737 17.6414 16.8854C17.4309 16.997 17.2018 17.063 16.9673 17.0797C16.0044 17.1317 12.1825 17.0613 12.1744 17.0613C10.478 17.0613 7.90603 17.0504 7.76906 17.0461L7.75992 17.2369V17.045C7.75992 17.045 5.99556 17.0201 4.57413 17.0201C3.89436 17.0201 3.29168 17.0266 2.99136 17.0429H2.88991C1.8388 17.0429 0.983506 16.2341 0.982492 15.2411C0.982492 14.0486 1.56588 13.6789 2.71642 13.3743L3.00862 13.2496L3.0289 12.9353L3.01571 12.7726C3.00501 12.7009 2.99857 12.6285 2.99644 12.5558C2.99698 11.9265 3.23111 11.3231 3.64746 10.8781C4.06382 10.433 4.62842 10.1825 5.21737 10.1817C5.59609 10.1844 5.96768 10.2919 6.29588 10.4939L6.90463 10.8603L6.89144 10.1112C6.88545 9.65247 6.9839 9.19906 7.17832 8.79001C7.37273 8.38096 7.65729 8.02853 8.00748 7.76308C8.06557 7.75485 8.12115 7.73261 8.17001 7.69805C8.21888 7.6635 8.25975 7.61752 8.28954 7.56361C8.57345 7.39581 8.88238 7.28174 9.20267 7.22646C9.31185 7.2069 9.42191 7.19351 9.53241 7.18635H9.67749C9.79176 7.18732 9.9059 7.19491 10.0194 7.20911C11.3384 7.37823 12.3773 8.50242 12.4433 9.91065C12.4449 9.99458 12.4422 10.0786 12.4351 10.1622L12.3996 11.2701L13.1261 10.4787C13.3319 10.2531 13.5781 10.074 13.85 9.95198C14.1219 9.83 14.4139 9.76765 14.7088 9.76864C15.2976 9.7695 15.862 10.0198 16.2784 10.4646C16.6947 10.9095 16.9289 11.5126 16.9297 12.1417C16.929 12.2971 16.9148 12.4521 16.8871 12.6046C16.8871 12.6046 16.8871 12.6122 16.8871 12.6154L16.807 13.0491L17.2128 13.125C17.3182 13.1448 17.4221 13.1734 17.5233 13.2106C18.2183 13.4719 18.7063 14.1126 18.7408 14.8649ZM17.7171 11.9075C17.6792 11.3617 17.5122 10.835 17.2315 10.3771C16.9509 9.91914 16.566 9.54491 16.1129 9.28956C15.6598 9.0342 15.1534 8.90609 14.6412 8.91727C14.129 8.92844 13.6279 9.07853 13.1849 9.35343C13.0392 8.59225 12.6768 7.89782 12.1473 7.36528C11.6179 6.83274 10.9473 6.48815 10.2274 6.3787C10.1878 6.3722 10.1462 6.37328 10.1067 6.36786C10.3524 5.63878 10.751 4.97943 11.2719 4.44032C11.7929 3.9012 12.4224 3.49661 13.1122 3.25751C13.8021 3.01841 14.534 2.95115 15.2519 3.06088C15.9698 3.1706 16.6548 3.4544 17.2542 3.89055C17.8537 4.32671 18.3518 4.90364 18.7104 5.57719C19.069 6.25073 19.2786 7.00303 19.3232 7.77648C19.3678 8.54993 19.2461 9.32403 18.9676 10.0395C18.689 10.755 18.2609 11.3928 17.7161 11.9043L17.7171 11.9075Z" fill="#F6CD4B"/>
<path d="M17.1404 12.6955C17.1485 12.6034 17.1526 12.5123 17.1526 12.4212C17.1507 11.5948 16.8423 10.8028 16.295 10.2188C15.7477 9.63484 15.0061 9.30645 14.2326 9.30559C13.6903 9.30422 13.1587 9.46615 12.6986 9.77283C12.4145 7.9971 10.8916 6.66801 9.10794 6.77317C7.41156 6.86315 6.06418 8.18898 5.84706 9.89208C5.54442 9.77554 5.22521 9.71575 4.90351 9.71537C4.12923 9.71652 3.38699 10.0458 2.83959 10.6309C2.2922 11.2159 1.98433 12.0091 1.98353 12.8365C1.98353 12.8722 1.98353 12.9091 1.98353 12.9449C1.17186 13.1823 -0.00303785 13.6864 5.90206e-06 15.4686C5.90206e-06 16.7923 1.03082 17.9284 2.43501 18L17.0988 17.9262C17.6518 17.7189 18.1282 17.3281 18.4584 16.8108C18.7886 16.2935 18.9553 15.677 18.9342 15.0512C18.8865 13.9531 18.1631 13.024 17.1404 12.6955Z" fill="#CDCFEE"/>
</svg>
