<svg width="20" height="20" viewBox="0 0 20 20" fill="none" xmlns="http://www.w3.org/2000/svg">
<path fill-rule="evenodd" clip-rule="evenodd" d="M12.5244 13.4083C11.3322 14.4021 9.79845 15 8.125 15C4.32804 15 1.25 11.922 1.25 8.125C1.25 4.32804 4.32804 1.25 8.125 1.25C11.922 1.25 15 4.32804 15 8.125C15 9.79842 14.4021 11.3322 13.4083 12.5244L17.942 17.0581L17.0581 17.9419L12.5244 13.4083ZM13.75 8.125C13.75 11.2316 11.2316 13.75 8.125 13.75C5.0184 13.75 2.5 11.2316 2.5 8.125C2.5 5.0184 5.0184 2.5 8.125 2.5C11.2316 2.5 13.75 5.0184 13.75 8.125Z" fill="#343436"/>
</svg>
