<svg width="24" height="24" viewBox="0 0 24 24" fill="none" xmlns="http://www.w3.org/2000/svg">
<mask id="mask0_1374_7767" style="mask-type:alpha" maskUnits="userSpaceOnUse" x="0" y="0" width="24" height="24">
<rect width="24" height="24" fill="#D9D9D9"/>
</mask>
<g mask="url(#mask0_1374_7767)">
<path d="M17.1667 9.39989C17.1667 7.96775 16.5696 6.59427 15.5069 5.58159C14.4442 4.56892 13.0029 4 11.5 4C9.99711 4 8.55577 4.56892 7.49306 5.58159C6.43036 6.59427 5.83333 7.96775 5.83333 9.39989C5.83333 12.941 4.93817 15.0603 4.15415 16.2375C3.87675 16.654 4.21907 17.4997 4.7195 17.4997H18.2805C18.7809 17.4997 19.1232 16.654 18.8458 16.2375C18.0618 15.0603 17.1667 12.941 17.1667 9.39989Z" stroke="#B6B8FE" stroke-width="1.6" stroke-linecap="round" stroke-linejoin="round"/>
<path d="M13.1311 19.0996C12.965 19.3724 12.7267 19.5988 12.4399 19.7562C12.1532 19.9136 11.8281 19.9964 11.4972 19.9964C11.1663 19.9964 10.8411 19.9136 10.5544 19.7562C10.2677 19.5988 10.0293 19.3724 9.86328 19.0996" stroke="#B6B8FE" stroke-width="1.6" stroke-linecap="round" stroke-linejoin="round"/>
</g>
</svg>
