<svg width="20" height="20" viewBox="0 0 20 20" fill="none" xmlns="http://www.w3.org/2000/svg">
<mask id="mask0_903_4498" style="mask-type:alpha" maskUnits="userSpaceOnUse" x="0" y="0" width="20" height="20">
<rect width="20" height="20" fill="#C4C4C4"/>
</mask>
<g mask="url(#mask0_903_4498)">
<mask id="mask1_903_4498" style="mask-type:alpha" maskUnits="userSpaceOnUse" x="0" y="0" width="20" height="20">
<rect width="20" height="20" fill="#C4C4C4"/>
</mask>
<g mask="url(#mask1_903_4498)">
<path d="M17.7892 9.96799C17.737 9.96799 17.6773 9.94627 17.64 9.91006L10 2.49427L2.35999 9.91006C2.27792 9.98972 2.14362 9.98972 2.06155 9.91006C1.97948 9.83039 1.97948 9.70004 2.06155 9.62038L9.85078 2.05975C9.93285 1.98008 10.0671 1.98008 10.1492 2.05975L17.9384 9.62038C18.0205 9.70004 18.0205 9.83039 17.9384 9.91006C17.9011 9.94627 17.8415 9.96799 17.7892 9.96799Z" fill="#6F6F6F" stroke="#6F6F6F" stroke-width="0.5"/>
<path d="M15.6998 17H11.9395C11.8201 17 11.7306 16.9059 11.7306 16.7972V11.5613H8.27619V16.7972C8.27619 16.9131 8.1792 17 8.06728 17H4.30697C4.18759 17 4.09806 16.9059 4.09806 16.7972V7.91131C4.0906 7.79544 4.18759 7.70129 4.30697 7.70129C4.42634 7.70129 4.51587 7.79544 4.51587 7.90407V16.5872H7.85092V11.3513C7.85092 11.2354 7.94791 11.1485 8.05982 11.1485H11.9395C12.0589 11.1485 12.1484 11.2426 12.1484 11.3513V16.5872H15.4835V7.91131C15.4835 7.79544 15.5805 7.70854 15.6924 7.70854C15.8117 7.70854 15.9013 7.80268 15.9013 7.91131V16.7972C15.9087 16.9059 15.8117 17 15.6998 17Z" fill="#6F6F6F" stroke="#6F6F6F" stroke-width="0.5"/>
</g>
</g>
</svg>
