<svg width="24" height="24" viewBox="0 0 24 24" fill="none" xmlns="http://www.w3.org/2000/svg">
<path d="M2.98573 5.97156C4.6347 5.97156 5.97146 4.63478 5.97146 2.98578C5.97146 1.33678 4.6347 0 2.98573 0C1.33676 0 0 1.33678 0 2.98578C0 4.63478 1.33676 5.97156 2.98573 5.97156Z" fill="#4113C6"/>
<path d="M11.9994 5.97156C13.6484 5.97156 14.9851 4.63478 14.9851 2.98578C14.9851 1.33678 13.6484 0 11.9994 0C10.3504 0 9.01367 1.33678 9.01367 2.98578C9.01367 4.63478 10.3504 5.97156 11.9994 5.97156Z" fill="#4113C6"/>
<path d="M20.9857 5.97156C22.6347 5.97156 23.9715 4.63478 23.9715 2.98578C23.9715 1.33678 22.6347 0 20.9857 0C19.3368 0 18 1.33678 18 2.98578C18 4.63478 19.3368 5.97156 20.9857 5.97156Z" fill="#4113C6"/>
<path d="M2.98573 14.9857C4.6347 14.9857 5.97146 13.6489 5.97146 11.9999C5.97146 10.3509 4.6347 9.01416 2.98573 9.01416C1.33676 9.01416 0 10.3509 0 11.9999C0 13.6489 1.33676 14.9857 2.98573 14.9857Z" fill="#4113C6"/>
<path d="M11.9994 14.9857C13.6484 14.9857 14.9851 13.6489 14.9851 11.9999C14.9851 10.3509 13.6484 9.01416 11.9994 9.01416C10.3504 9.01416 9.01367 10.3509 9.01367 11.9999C9.01367 13.6489 10.3504 14.9857 11.9994 14.9857Z" fill="#4113C6"/>
<path d="M2.98573 24C4.6347 24 5.97146 22.6632 5.97146 21.0142C5.97146 19.3652 4.6347 18.0284 2.98573 18.0284C1.33676 18.0284 0 19.3652 0 21.0142C0 22.6632 1.33676 24 2.98573 24Z" fill="#4113C6"/>
<path d="M12.0004 18.0001C10.3511 18.0001 9.01465 19.3366 9.01465 20.9858C9.01465 22.6351 10.3511 23.9716 12.0004 23.9716C13.6496 23.9716 14.9861 22.6351 14.9861 20.9858C15.0145 19.3366 13.6781 18.0001 12.0004 18.0001ZM12.0004 22.9764C10.9198 22.9764 10.0383 22.0948 10.0383 21.0143C10.0383 19.9337 10.9198 19.0522 12.0004 19.0522C13.0809 19.0522 13.9624 19.9337 13.9624 21.0143C13.9624 22.0948 13.0809 22.9764 12.0004 22.9764Z" fill="#F6553D"/>
<path d="M21.014 18.0001C19.3648 18.0001 18.0283 19.3366 18.0283 20.9858C18.0283 22.6351 19.3648 23.9716 21.014 23.9716C22.6633 23.9716 23.9998 22.6351 23.9998 20.9858C24.0282 19.3366 22.6633 18.0001 21.014 18.0001ZM21.014 22.9764C19.9335 22.9764 19.052 22.0948 19.052 21.0143C19.052 19.9337 19.9335 19.0522 21.014 19.0522C22.0946 19.0522 22.9761 19.9337 22.9761 21.0143C22.9761 22.0948 22.0946 22.9764 21.014 22.9764Z" fill="#F6553D"/>
<path d="M21.014 9.01428C19.3648 9.01428 18.0283 10.3508 18.0283 12.0001C18.0283 13.6494 19.3648 14.9858 21.014 14.9858C22.6633 14.9858 23.9998 13.6494 23.9998 12.0001C23.9998 10.3508 22.6633 9.01428 21.014 9.01428ZM21.014 13.9621C19.9335 13.9621 19.052 13.0806 19.052 12.0001C19.052 10.9195 19.9335 10.038 21.014 10.038C22.0946 10.038 22.9761 10.9195 22.9761 12.0001C22.9761 13.0806 22.0946 13.9621 21.014 13.9621Z" fill="#F6553D"/>
</svg>
