<svg width="14" height="15" viewBox="0 0 14 15" fill="none" xmlns="http://www.w3.org/2000/svg">
<g clip-path="url(#clip0_983_531)">
<path fill-rule="evenodd" clip-rule="evenodd" d="M11.0001 1.96601C11.0032 2.35081 10.8603 2.72248 10.6001 3.00601L6.3481 7.50001L10.5951 11.994C10.8556 12.2767 11.0002 12.6471 11.0002 13.0315C11.0002 13.4159 10.8556 13.7863 10.5951 14.069C10.4705 14.205 10.319 14.3135 10.1502 14.3878C9.98141 14.462 9.79901 14.5004 9.6146 14.5004C9.43019 14.5004 9.2478 14.462 9.079 14.3878C8.91021 14.3135 8.7587 14.205 8.6341 14.069L3.4071 8.53701C3.14549 8.25546 3.00009 7.88535 3.00009 7.50101C3.00009 7.11668 3.14549 6.74657 3.4071 6.46501L8.6341 0.931013C8.7587 0.795063 8.91021 0.686509 9.079 0.612246C9.2478 0.537983 9.43019 0.499634 9.6146 0.499634C9.79901 0.499634 9.98141 0.537983 10.1502 0.612246C10.319 0.686509 10.4705 0.795063 10.5951 0.931013C10.8568 1.21198 11.0016 1.58207 11.0001 1.96601Z" fill="white"/>
</g>
<defs>
<clipPath id="clip0_983_531">
<rect width="14" height="14" fill="white" transform="matrix(-1 0 0 1 14 0.5)"/>
</clipPath>
</defs>
</svg>
