<svg width="24" height="24" viewBox="0 0 24 24" fill="none" xmlns="http://www.w3.org/2000/svg">
<g clip-path="url(#clip0_603_3531)">
<path fill-rule="evenodd" clip-rule="evenodd" d="M12.2557 17.897L16.6572 13.547L3.52288 13.487C3.3219 13.4863 3.12305 13.4459 2.93769 13.3682C2.75234 13.2905 2.58412 13.177 2.44267 13.0343C2.30123 12.8915 2.18932 12.7222 2.11337 12.5362C2.03741 12.3501 1.9989 12.1509 2.00002 11.9499C2.00096 11.749 2.04147 11.5503 2.11924 11.3651C2.19702 11.1799 2.31053 11.0119 2.45328 10.8706C2.59604 10.7293 2.76524 10.6175 2.95122 10.5417C3.1372 10.4658 3.33631 10.4273 3.53717 10.4285L16.6686 10.487L12.3257 6.09275C12.1842 5.95022 12.0721 5.7812 11.9959 5.59533C11.9198 5.40947 11.8809 5.21041 11.8817 5.00954C11.8825 4.80867 11.9229 4.60993 12.0006 4.42467C12.0782 4.23942 12.1916 4.07129 12.3343 3.92989C12.6228 3.64447 13.0127 3.4852 13.4185 3.48708C13.8243 3.48895 14.2128 3.65181 14.4986 3.93989L21.6415 11.1527C21.8756 11.3896 22.0061 11.7097 22.0042 12.0427C22.0023 12.3757 21.8682 12.6943 21.6315 12.9285L14.4129 20.0713C14.1247 20.3567 13.7349 20.5159 13.3294 20.514C12.9238 20.5121 12.5356 20.3493 12.25 20.0613C12.1082 19.9189 11.9959 19.7499 11.9195 19.564C11.843 19.3781 11.804 19.179 11.8045 18.978C11.805 18.777 11.8451 18.5781 11.9226 18.3926C12 18.2071 12.1132 18.0387 12.2557 17.897Z" fill="#6690FF"/>
</g>
<defs>
<clipPath id="clip0_603_3531">
<rect width="20" height="20" fill="white" transform="translate(2 2)"/>
</clipPath>
</defs>
</svg>
