<svg width="14" height="14" viewBox="0 0 14 14" fill="none" xmlns="http://www.w3.org/2000/svg">
<g clip-path="url(#clip0_267_1965)">
<path d="M13.3117 8.90097L11.8808 7.24323C11.7668 7.12954 11.6764 6.99454 11.6147 6.84596C11.5531 6.69738 11.5214 6.53813 11.5215 6.37732V4.96686C11.4872 3.80738 11.0155 2.70351 10.2005 1.87593C9.38559 1.04835 8.28751 0.558039 7.1258 0.503016C5.93732 0.459669 4.77954 0.884953 3.90314 1.68679C3.02674 2.48862 2.50225 3.60248 2.44322 4.78719V6.37732C2.44332 6.53813 2.41164 6.69738 2.34998 6.84596C2.28832 6.99454 2.1979 7.12954 2.08388 7.24323L0.679016 8.90097C0.593407 8.98676 0.535174 9.0959 0.511655 9.21464C0.488135 9.33339 0.500383 9.45642 0.546853 9.56823C0.593324 9.68004 0.671938 9.77563 0.772788 9.84296C0.873639 9.91028 0.992213 9.94633 1.11357 9.94655H12.8781C12.9995 9.94658 13.1183 9.91067 13.2193 9.84335C13.3203 9.77603 13.399 9.68033 13.4454 9.56837C13.4918 9.45642 13.5039 9.33323 13.4801 9.21443C13.4563 9.09562 13.3977 8.98653 13.3117 8.90097Z" fill="white"/>
<path d="M4.62524 11.1931C4.73002 11.7333 5.02779 12.2172 5.46325 12.555C5.89872 12.8927 6.44228 13.0614 6.993 13.0296C7.54383 13.0614 8.08751 12.8928 8.52313 12.555C8.95875 12.2173 9.2567 11.7334 9.36168 11.1931H4.62524Z" fill="white"/>
</g>
<defs>
<clipPath id="clip0_267_1965">
<rect width="14" height="14" fill="white"/>
</clipPath>
</defs>
</svg>
