<svg width="14" height="14" viewBox="0 0 14 14" fill="none" xmlns="http://www.w3.org/2000/svg">
<g clip-path="url(#clip0_1396_501)">
<path fill-rule="evenodd" clip-rule="evenodd" d="M12.5341 2.9999C12.1493 2.99678 11.7776 3.13973 11.4941 3.3999L7.00011 7.6519L2.50611 3.4049C2.22341 3.14438 1.85304 2.99976 1.46861 2.99976C1.08418 2.99976 0.713812 3.14438 0.431109 3.4049C0.295159 3.5295 0.186605 3.681 0.112343 3.8498C0.0380802 4.01859 -0.000268989 4.20099 -0.000268997 4.3854C-0.000269005 4.56981 0.0380801 4.7522 0.112343 4.921C0.186605 5.08979 0.295159 5.2413 0.431109 5.3659L5.96311 10.5929C6.24467 10.8545 6.61477 10.9999 6.99911 10.9999C7.38345 10.9999 7.75355 10.8545 8.03511 10.5929L13.5691 5.3659C13.7051 5.2413 13.8136 5.08979 13.8879 4.921C13.9621 4.7522 14.0005 4.56981 14.0005 4.3854C14.0005 4.20099 13.9621 4.01859 13.8879 3.8498C13.8136 3.681 13.7051 3.5295 13.5691 3.4049C13.2881 3.14322 12.9181 2.9984 12.5341 2.9999Z" fill="#6690FF"/>
</g>
<defs>
<clipPath id="clip0_1396_501">
<rect width="14" height="14" fill="white" transform="translate(14) rotate(90)"/>
</clipPath>
</defs>
</svg>
