<svg width="16" height="16" viewBox="0 0 16 16" fill="none" xmlns="http://www.w3.org/2000/svg">
<path d="M6.67611 1.30176C3.73057 1.30176 1.34277 3.68976 1.34277 6.6351C1.34277 9.58044 3.73057 11.9684 6.67611 11.9684C7.90057 11.9684 9.06117 11.5478 9.96137 10.8545L12.8636 13.7811C13.124 14.0411 13.5616 14.0411 13.822 13.7811C14.0823 13.5204 14.0823 13.0831 13.822 12.8225L10.8996 9.91577C11.5935 9.01577 12.0094 7.85977 12.0094 6.6351C12.0094 3.68976 9.62164 1.30176 6.67611 1.30176ZM6.67611 2.63509C8.88524 2.63509 10.6761 4.42577 10.6761 6.6351C10.6761 8.84444 8.88524 10.6351 6.67611 10.6351C4.46697 10.6351 2.67611 8.84444 2.67611 6.6351C2.67611 4.42577 4.46697 2.63509 6.67611 2.63509Z" fill="#B863D8"/>
</svg>
