<svg width="14" height="14" viewBox="0 0 14 14" fill="none" xmlns="http://www.w3.org/2000/svg">
<g clip-path="url(#clip0_325_2829)">
<path fill-rule="evenodd" clip-rule="evenodd" d="M3.49992 3.46906C3.61583 3.46906 3.7306 3.44621 3.83768 3.40183C3.94475 3.35744 4.04203 3.29238 4.12394 3.21038C4.20586 3.12837 4.2708 3.03102 4.31507 2.92389C4.35934 2.81677 4.38205 2.70197 4.38192 2.58606V0.994061C4.38192 0.878235 4.35911 0.763543 4.31478 0.656534C4.27046 0.549525 4.20549 0.452294 4.12359 0.370392C4.04169 0.288491 3.94446 0.223523 3.83745 0.179199C3.73044 0.134874 3.61575 0.112061 3.49992 0.112061C3.38409 0.112061 3.2694 0.134874 3.16239 0.179199C3.05538 0.223523 2.95815 0.288491 2.87625 0.370392C2.79435 0.452294 2.72938 0.549525 2.68506 0.656534C2.64073 0.763543 2.61792 0.878235 2.61792 0.994061V2.58606C2.61779 2.70197 2.64051 2.81677 2.68477 2.92389C2.72904 3.03102 2.79398 3.12837 2.8759 3.21038C2.95781 3.29238 3.05509 3.35744 3.16216 3.40183C3.26924 3.44621 3.38401 3.46906 3.49992 3.46906Z" fill="#6690FF"/>
<path d="M10.8819 2.58606L10.8819 2.58663C10.882 2.63683 10.8721 2.68655 10.853 2.73295C10.8338 2.77934 10.8057 2.8215 10.7702 2.85702C10.7347 2.89254 10.6926 2.92072 10.6462 2.93994C10.5998 2.95917 10.5501 2.96906 10.4999 2.96906C10.4497 2.96906 10.4 2.95917 10.3536 2.93994C10.3073 2.92072 10.2651 2.89254 10.2297 2.85702C10.1942 2.8215 10.166 2.77934 10.1469 2.73295C10.1277 2.68655 10.1179 2.63683 10.1179 2.58663V2.58606V0.994061C10.1179 0.892748 10.1582 0.795585 10.2298 0.723946C10.3014 0.652307 10.3986 0.612061 10.4999 0.612061C10.6012 0.612061 10.6984 0.652307 10.77 0.723946C10.8417 0.795585 10.8819 0.892749 10.8819 0.994061L10.8819 2.58606ZM11.3819 2.58606V0.994061C11.3819 0.76014 11.289 0.535799 11.1236 0.370392C10.9582 0.204985 10.7338 0.112061 10.4999 0.112061C10.266 0.112061 10.0417 0.204985 9.87625 0.370392C9.71085 0.535799 9.61792 0.76014 9.61792 0.994061V2.58606C9.61779 2.70197 9.64051 2.81677 9.68477 2.92389C9.72904 3.03102 9.79398 3.12837 9.8759 3.21038C9.95781 3.29238 10.0551 3.35744 10.1622 3.40183C10.2692 3.44621 10.384 3.46906 10.4999 3.46906C10.6158 3.46906 10.7306 3.44621 10.8377 3.40183C10.9448 3.35744 11.042 3.29238 11.1239 3.21038C11.2059 3.12837 11.2708 3.03102 11.3151 2.92389C11.3593 2.81677 11.3821 2.70197 11.3819 2.58606Z" fill="#6690FF" stroke="#6690FF"/>
<path d="M10.7754 5.5255L10.7841 5.52461L10.7927 5.52342C11.4613 5.43073 12.0727 5.09567 12.5106 4.58187C12.9472 4.06951 13.1811 3.41501 13.168 2.74208V1.99237C13.1969 2.01589 13.2245 2.0413 13.2505 2.06851C13.4096 2.23492 13.4989 2.45597 13.5 2.68618V12.4852C13.5 12.7239 13.4052 12.9528 13.2364 13.1216C13.0676 13.2903 12.8387 13.3852 12.6 13.3852H1.4C1.1613 13.3852 0.932387 13.2903 0.763604 13.1216C0.594821 12.9528 0.5 12.7239 0.5 12.4852V2.68622C0.501108 2.4559 0.590483 2.23474 0.749744 2.06831C0.775994 2.04088 0.803813 2.01528 0.833 1.9916V2.87104C0.833 2.87108 0.833 2.87112 0.833 2.87116C0.83293 3.24468 0.911293 3.61406 1.06302 3.95539C1.21476 4.29674 1.43649 4.60243 1.71387 4.85266C1.99124 5.10289 2.31807 5.29208 2.6732 5.40799C3.02833 5.52389 3.40385 5.56393 3.77543 5.5255L3.78405 5.52461L3.79264 5.52342C4.46196 5.43066 5.07382 5.09507 5.51179 4.5805C5.94846 4.06745 6.18188 3.41219 6.168 2.73875V1.78516H7.833V2.87104C7.833 2.87108 7.833 2.87112 7.833 2.87116C7.83293 3.24468 7.91129 3.61406 8.06302 3.95539C8.21476 4.29674 8.43649 4.60243 8.71387 4.85266C8.99124 5.10289 9.31808 5.29208 9.6732 5.40799C10.0283 5.52389 10.4038 5.56393 10.7754 5.5255ZM12 10.7769L12 10.7756L12.003 7.45261L12.003 7.45041C12.0017 7.09268 11.8591 6.74997 11.6061 6.49702C11.3532 6.24407 11.0105 6.10141 10.6528 6.10016H10.651H3.151C2.79163 6.10016 2.44698 6.24292 2.19287 6.49703C1.93876 6.75114 1.796 7.09579 1.796 7.45516L1.796 10.7752L1.796 10.7769C1.79726 11.1346 1.93992 11.4773 2.19287 11.7303C2.44581 11.9832 2.78853 12.1259 3.14625 12.1272H3.148L10.648 12.1272L10.6498 12.1272C11.0075 12.1259 11.3502 11.9832 11.6031 11.7303C11.8561 11.4773 11.9987 11.1346 12 10.7769Z" fill="#6690FF" stroke="#6690FF"/>
</g>
<defs>
<clipPath id="clip0_325_2829">
<rect width="14" height="14" fill="white"/>
</clipPath>
</defs>
</svg>
