<svg width="24" height="23" viewBox="0 0 24 23" fill="none" xmlns="http://www.w3.org/2000/svg">
<mask id="mask0_214_3718" style="mask-type:alpha" maskUnits="userSpaceOnUse" x="0" y="0" width="24" height="23">
<rect x="0.5" width="23" height="23" fill="#C4C4C4"/>
</mask>
<g mask="url(#mask0_214_3718)">
<path d="M20.5643 5.66682H17.94C17.4929 5.66682 17.0898 5.42701 16.8877 5.04103L16.3502 4.01416C16.0443 3.4297 15.4338 3.06665 14.757 3.06665H9.21996C8.53536 3.06665 7.92176 3.43576 7.61858 4.02989L7.10799 5.03058C6.92307 5.39304 6.56312 5.62823 6.15296 5.66212V5.11335C6.15296 4.80635 5.89494 4.55655 5.57773 4.55655H3.91344C3.59627 4.55655 3.33821 4.80635 3.33821 5.11335V5.66956C2.39891 5.7191 1.65039 6.47431 1.65039 7.39568V16.9778C1.65039 17.9311 2.45159 18.7066 3.43645 18.7066H4.02414C4.1916 18.7066 4.32736 18.5753 4.32736 18.4131C4.32736 18.251 4.1916 18.1196 4.02414 18.1196H3.43645C2.78602 18.1196 2.25684 17.6074 2.25684 16.9778V7.39568C2.25684 6.76605 2.78602 6.25383 3.43645 6.25383H6.05035C6.73499 6.25383 7.34859 5.88472 7.65173 5.29055L8.16232 4.28986C8.36253 3.89746 8.76779 3.65366 9.21996 3.65366H14.757C15.2041 3.65366 15.6072 3.89343 15.8093 4.27945L16.3467 5.30632C16.6527 5.89078 17.2632 6.25383 17.94 6.25383H20.5644C21.2148 6.25383 21.744 6.76605 21.744 7.39568V16.9778C21.744 17.6074 21.2148 18.1196 20.5644 18.1196H5.29763C5.13017 18.1196 4.99441 18.251 4.99441 18.4131C4.99441 18.5753 5.13017 18.7066 5.29763 18.7066H20.5643C21.5492 18.7066 22.3504 17.9311 22.3504 16.9778V7.39568C22.3504 6.44241 21.5492 5.66682 20.5643 5.66682ZM3.94465 5.66682V5.14356H5.54652V5.66682H3.94465Z" fill="white" stroke="white" stroke-width="0.3"/>
<path d="M6.85156 11.9755C6.85156 14.7238 9.16135 16.9596 12.0004 16.9596C14.8395 16.9596 17.1493 14.7237 17.1493 11.9755C17.1493 9.22729 14.8396 6.99146 12.0004 6.99146C9.16131 6.99146 6.85156 9.22729 6.85156 11.9755ZM12.0004 7.57846C14.5052 7.57846 16.5429 9.55097 16.5429 11.9755C16.5429 14.4001 14.5051 16.3726 12.0004 16.3726C9.49574 16.3726 7.45801 14.4001 7.45801 11.9755C7.45801 9.55097 9.4957 7.57846 12.0004 7.57846Z" fill="white" stroke="white" stroke-width="0.3"/>
<path d="M12.0001 15.5857C14.0567 15.5857 15.7298 13.9662 15.7298 11.9755C15.7298 11.4743 15.6256 10.989 15.4202 10.5331C15.3532 10.3845 15.1745 10.3166 15.021 10.3815C14.8675 10.4463 14.7974 10.6193 14.8643 10.7679C15.0362 11.1493 15.1233 11.5556 15.1233 11.9755C15.1233 13.6425 13.7223 14.9987 12.0001 14.9987C10.278 14.9987 8.87695 13.6425 8.87695 11.9755C8.87695 10.3084 10.278 8.9522 12.0001 8.9522C12.8087 8.9522 13.5756 9.25017 14.1595 9.79123C14.2805 9.90323 14.4724 9.89928 14.5882 9.78219C14.704 9.6651 14.6998 9.4793 14.5789 9.36722C13.8815 8.72108 12.9657 8.36523 12.0001 8.36523C9.94361 8.36523 8.27051 9.98479 8.27051 11.9755C8.27051 13.9662 9.94361 15.5857 12.0001 15.5857Z" fill="white" stroke="white" stroke-width="0.3"/>
<path d="M4.05975 6.99146C3.51415 6.99146 3.07031 7.42111 3.07031 7.94922C3.07031 8.47733 3.51419 8.90702 4.05975 8.90702C4.60531 8.90702 5.04922 8.47737 5.04922 7.94922C5.04922 7.42107 4.60535 6.99146 4.05975 6.99146ZM4.05975 8.31997C3.84854 8.31997 3.67676 8.15365 3.67676 7.94918C3.67676 7.74474 3.84858 7.57842 4.05975 7.57842C4.27091 7.57842 4.44278 7.74474 4.44278 7.94918C4.44278 8.15365 4.27095 8.31997 4.05975 8.31997Z" fill="white"/>
<path d="M13.503 5.14365C13.6704 5.14365 13.8062 5.01228 13.8062 4.85014C13.8062 4.68801 13.6704 4.55664 13.503 4.55664H10.4985C10.3311 4.55664 10.1953 4.68801 10.1953 4.85014C10.1953 5.01228 10.3311 5.14365 10.4985 5.14365H13.503Z" fill="white"/>
<path d="M20.3203 7.86948C20.4878 7.86948 20.6236 7.73811 20.6236 7.57597C20.6236 7.41384 20.4878 7.28247 20.3203 7.28247H19.8433C19.6758 7.28247 19.54 7.41384 19.54 7.57597C19.54 7.73811 19.6758 7.86948 19.8433 7.86948H20.3203Z" fill="white"/>
</g>
</svg>
