<svg width="14" height="14" viewBox="0 0 14 14" fill="none" xmlns="http://www.w3.org/2000/svg">
<g clip-path="url(#clip0_1560_9424)">
<path d="M6.89673 4.7998C7.44901 4.7998 7.89673 4.35209 7.89673 3.7998C7.89673 3.24752 7.44901 2.7998 6.89673 2.7998C6.34444 2.7998 5.89673 3.24752 5.89673 3.7998C5.89673 4.35209 6.34444 4.7998 6.89673 4.7998Z" fill="#84A9FF"/>
<path d="M8.43729 9.35399C8.32142 9.35399 8.21028 9.308 8.12828 9.22613C8.04628 9.14426 8.00013 9.03319 7.99995 8.91732V5.58902C7.99995 5.4732 7.95394 5.36213 7.87205 5.28024C7.79016 5.19835 7.67909 5.15234 7.56328 5.15234L5.93666 5.15235C5.82085 5.15235 5.70978 5.19835 5.62789 5.28024C5.546 5.36214 5.49999 5.47321 5.49999 5.58902V5.88058C5.49999 5.99639 5.546 6.10746 5.62789 6.18935C5.70978 6.27124 5.82085 6.31725 5.93666 6.31725C6.05247 6.31725 6.16354 6.36326 6.24543 6.44515C6.32732 6.52704 6.37333 6.63811 6.37333 6.75392V8.92065C6.37333 9.03646 6.32732 9.14753 6.24543 9.22942C6.16354 9.31131 6.05247 9.35732 5.93666 9.35732C5.82085 9.35732 5.70978 9.40333 5.62789 9.48522C5.546 9.56711 5.49999 9.67818 5.49999 9.79399V10.0856C5.50087 10.2008 5.54726 10.311 5.62906 10.3922C5.71085 10.4734 5.82142 10.5189 5.93666 10.5189L8.43662 10.5189C8.49396 10.5189 8.55075 10.5076 8.60373 10.4857C8.65671 10.4637 8.70485 10.4315 8.74539 10.391C8.78594 10.3504 8.81811 10.3023 8.84005 10.2493C8.862 10.1963 8.87329 10.1396 8.87329 10.0822V9.79066C8.87329 9.67497 8.82737 9.564 8.74563 9.48212C8.66388 9.40025 8.55298 9.35417 8.43729 9.35399Z" fill="#84A9FF"/>
<circle cx="7" cy="7" r="6.375" stroke="#84A9FF" stroke-width="1.25"/>
</g>
<defs>
<clipPath id="clip0_1560_9424">
<rect width="14" height="14" fill="white"/>
</clipPath>
</defs>
</svg>
