<svg width="32" height="32" viewBox="0 0 32 32" fill="none" xmlns="http://www.w3.org/2000/svg">
<mask id="mask0_267_2092" style="mask-type:alpha" maskUnits="userSpaceOnUse" x="0" y="0" width="32" height="32">
<rect width="32" height="32" fill="#D9D9D9"/>
</mask>
<g mask="url(#mask0_267_2092)">
<path d="M23.7788 14.6667H27.9523C28.5297 14.6667 29.0855 14.9127 29.4548 15.3566C30.7762 16.9445 30.8216 17.6367 30.5896 22.8502C30.5658 23.3844 30.1253 23.8096 29.5906 23.8096H2.07306C1.51311 23.8096 1.0624 23.3496 1.07215 22.7898C1.10593 20.8497 1.12357 19.1496 1.13277 17.7879M23.7788 14.6667C23.4979 12.762 22.6359 7.80957 18.2857 7.80957C12.8927 7.80957 9.48343 7.80957 8.92166 7.80957L7.22142 7.80957C6.85982 7.80957 6.52638 8.00478 6.34939 8.32011L3.57879 13.2562C3.48088 13.4306 3.3329 13.5717 3.15398 13.6611L1.69561 14.3903C1.35683 14.5597 1.14295 14.9056 1.14257 15.2844C1.14196 15.8868 1.13988 16.7364 1.13277 17.7879M23.7788 14.6667H16.8058M16.8058 14.6667H11.2857C10.7334 14.6667 10.2857 14.219 10.2857 13.6667V12.9524V12.2381C10.2857 11.6859 10.7334 11.2381 11.2857 11.2381H15.8058C16.3581 11.2381 16.8058 11.6859 16.8058 12.2381V12.2858M16.8058 14.6667V13.3334M1.13277 17.7879H16M16.8058 13.3334H11.3333M16.8058 13.3334V12.2858M16.8058 12.2858H11.3333" stroke="#6690FF" stroke-width="1.6" stroke-linecap="round"/>
<path d="M12.087 24.1389C12.087 26.8455 9.89289 29.0396 7.18634 29.0396C4.47979 29.0396 2.28571 26.8455 2.28571 24.1389C2.28571 21.4324 4.47979 19.2383 7.18634 19.2383C9.89289 19.2383 12.087 21.4324 12.087 24.1389Z" fill="#6690FF"/>
<path d="M10.1267 24.1389C10.1267 25.7628 8.81027 27.0793 7.18634 27.0793C5.56241 27.0793 4.24596 25.7628 4.24596 24.1389C4.24596 22.515 5.56241 21.1985 7.18634 21.1985C8.81027 21.1985 10.1267 22.515 10.1267 24.1389Z" fill="white"/>
<path d="M28.087 24.1389C28.087 26.8455 25.8929 29.0396 23.1863 29.0396C20.4798 29.0396 18.2857 26.8455 18.2857 24.1389C18.2857 21.4324 20.4798 19.2383 23.1863 19.2383C25.8929 19.2383 28.087 21.4324 28.087 24.1389Z" fill="#6690FF"/>
<path d="M26.1267 24.1389C26.1267 25.7628 24.8103 27.0793 23.1863 27.0793C21.5624 27.0793 20.246 25.7628 20.246 24.1389C20.246 22.515 21.5624 21.1985 23.1863 21.1985C24.8103 21.1985 26.1267 22.515 26.1267 24.1389Z" fill="white"/>
<path d="M7.26835 5.52386L8.15838 6.1601C8.30671 6.26614 7.70409 7.03852 7.90503 6.75743" stroke="#6690FF" stroke-width="1.6" stroke-linecap="round"/>
</g>
</svg>
