<svg width="32" height="32" viewBox="0 0 32 32" fill="none" xmlns="http://www.w3.org/2000/svg">
<mask id="mask0_267_2080" style="mask-type:alpha" maskUnits="userSpaceOnUse" x="0" y="0" width="32" height="32">
<rect width="32" height="32" fill="#D9D9D9"/>
</mask>
<g mask="url(#mask0_267_2080)">
<path d="M3.66675 8.87769H13.5448C14.0971 8.87769 14.5448 9.3254 14.5448 9.87769V11.7854C14.5448 12.3377 14.0971 12.7854 13.5448 12.7854H3.66675C3.11446 12.7854 2.66675 12.3377 2.66675 11.7854V9.87769C2.66675 9.3254 3.11446 8.87769 3.66675 8.87769Z" fill="#6690FF" stroke="#6690FF" stroke-width="1.6" stroke-linecap="round"/>
<path d="M21.5858 4.06641C23.4009 7.90094 26.2636 11.9699 28.5146 15.7165C31.2882 20.3327 24.6604 23.3613 19.7112 23.3613C14.6549 23.3613 4.87971 23.3613 2.42212 23.3613C2.08992 23.3613 1.77233 23.1999 1.64593 22.8927C0.644559 20.4588 2.26305 15.4166 3.49198 13.2374C3.65516 12.9481 3.96786 12.7856 4.30007 12.7856H12.6671C13.2194 12.7856 13.6617 13.236 13.7022 13.7868C14.0021 17.8695 16.21 19.0556 19.6061 17.6704C22.0196 16.6859 21.5858 10.8318 21.5858 7.90094C21.5858 4.97012 21.5858 4.06641 21.5858 4.06641ZM21.5858 4.06641H16.6366" stroke="#6690FF" stroke-width="1.6" stroke-linecap="round"/>
<path d="M22.0001 4.07055L25.5348 4.13711C26.0859 4.14749 26.5245 4.60179 26.5155 5.15287L26.4736 7.70783C26.4646 8.26166 26.007 8.70281 25.4532 8.69168L24.6406 8.67534C24.2502 8.66749 23.9002 8.43312 23.7443 8.07519L22.0001 4.07055ZM22.0001 4.07055L18.6305 4.07057" stroke="#6690FF" stroke-width="1.6" stroke-linecap="round"/>
<path d="M5.74841 16.6934H9.70775C10.3676 16.6934 11.6874 17.0841 11.6874 18.6472" stroke="#6690FF" stroke-width="1.6" stroke-linecap="round"/>
<path d="M11.6874 24.8286C11.6874 27.5263 9.47159 29.7133 6.73824 29.7133C4.00488 29.7133 1.78906 27.5263 1.78906 24.8286C1.78906 22.1308 4.00488 19.9438 6.73824 19.9438C9.47159 19.9438 11.6874 22.1308 11.6874 24.8286Z" fill="#6690FF"/>
<path d="M9.70774 24.8286C9.70774 26.4472 8.37825 27.7594 6.73824 27.7594C5.09822 27.7594 3.76873 26.4472 3.76873 24.8286C3.76873 23.2099 5.09822 21.8977 6.73824 21.8977C8.37825 21.8977 9.70774 23.2099 9.70774 24.8286Z" fill="white"/>
<path d="M31.484 24.8286C31.484 27.5263 29.2682 29.7133 26.5349 29.7133C23.8015 29.7133 21.5857 27.5263 21.5857 24.8286C21.5857 22.1308 23.8015 19.9438 26.5349 19.9438C29.2682 19.9438 31.484 22.1308 31.484 24.8286Z" fill="#6690FF"/>
<path d="M29.5044 24.8286C29.5044 26.4472 28.1749 27.7594 26.5349 27.7594C24.8949 27.7594 23.5654 26.4472 23.5654 24.8286C23.5654 23.2099 24.8949 21.8977 26.5349 21.8977C28.1749 21.8977 29.5044 23.2099 29.5044 24.8286Z" fill="white"/>
</g>
</svg>
