<svg width="32" height="32" viewBox="0 0 32 32" fill="none" xmlns="http://www.w3.org/2000/svg">
<mask id="mask0_267_2103" style="mask-type:alpha" maskUnits="userSpaceOnUse" x="0" y="0" width="32" height="32">
<rect width="32" height="32" fill="#D9D9D9"/>
</mask>
<g mask="url(#mask0_267_2103)">
<path d="M27.9987 11.5972L28.0262 11.5833L28.0526 11.5673C28.5795 11.2489 29.0014 10.9421 29.3219 10.644C29.636 10.3518 29.8932 10.0306 30.0294 9.67483C30.1762 9.29136 30.1766 8.87274 29.9715 8.4937C29.7834 8.1462 29.4747 7.92918 29.1939 7.79411C28.6385 7.52705 27.9057 7.44122 27.216 7.46177C26.5088 7.48285 25.7398 7.61893 25.0714 7.88426L25.0575 7.88976L25.0439 7.89576L21.0682 9.64775L18.0624 10.933L13.9527 7.94332L9.78831 4.91388L9.32178 5.55518L9.78831 4.91387C9.42603 4.65033 8.97848 4.53135 8.53315 4.5802L8.38935 4.59597C6.87965 4.76157 6.24098 6.60722 7.32543 7.67051L12.8903 13.1268L9.54684 14.7107C9.4911 14.7371 9.4263 14.7363 9.37123 14.7086L4.36731 12.1873C2.85577 11.4257 1.44888 13.3373 2.57109 14.5509L5.04564 18.0369L4.47569 18.5616C3.89336 19.0978 3.72962 19.9514 4.07225 20.665L4.15288 20.8329C4.58894 21.7411 5.68541 22.1145 6.58516 21.6614L13.6344 18.1112L13.8726 17.9912L13.9911 17.7524L14.8052 16.1124C14.8284 16.0657 14.8689 16.0299 14.9181 16.0126L15.0838 15.9545C15.2272 15.9042 15.3721 16.0259 15.3473 16.1759L13.9045 24.8955C13.6829 26.2345 14.9666 27.3277 16.2533 26.8957L17.1877 26.582L16.9331 25.8236L17.1877 26.582C17.7185 26.4038 18.1546 25.9835 18.3222 25.4169C18.8196 23.7364 19.3571 21.1249 19.7667 18.9616C19.9726 17.8741 20.148 16.8896 20.2719 16.1771C20.3222 15.8881 20.364 15.6437 20.396 15.4552C21.7765 14.8411 24.2779 13.5338 26.133 12.5643C26.9129 12.1567 27.5785 11.8088 27.9987 11.5972Z" stroke="#6690FF" stroke-width="1.6" stroke-linecap="round"/>
</g>
</svg>
