<svg width="25" height="24" viewBox="0 0 25 24" fill="none" xmlns="http://www.w3.org/2000/svg">
<g clip-path="url(#clip0_983_1522)">
<path d="M0.5 2.55775V21.444C0.502208 21.996 0.72128 22.525 1.10997 22.9168C1.49865 23.3087 2.0258 23.5321 2.57771 23.5389H3.41429C3.96928 23.538 4.50124 23.3169 4.89336 22.9241C5.28548 22.5313 5.50572 21.999 5.50571 21.444V2.55775C5.50572 2.00275 5.28548 1.47043 4.89336 1.07767C4.50124 0.684907 3.96928 0.463799 3.41429 0.462891H2.576C2.02438 0.47008 1.49767 0.693687 1.10935 1.08553C0.721037 1.47738 0.502201 2.00609 0.5 2.55775H0.5Z" fill="#6690FF"/>
<path d="M19.5 13.572V21.444C19.5022 21.996 19.7213 22.5249 20.11 22.9168C20.4987 23.3087 21.0258 23.5321 21.5777 23.5389H22.4211C22.9761 23.538 23.5081 23.3168 23.9002 22.9241C24.2923 22.5313 24.5126 21.999 24.5126 21.444V13.572C24.5103 13.0185 24.2891 12.4884 23.8972 12.0975C23.5053 11.7066 22.9747 11.4866 22.4211 11.4857H21.576C21.0259 11.4929 20.5004 11.7153 20.1123 12.1053C19.7243 12.4953 19.5044 13.0218 19.5 13.572Z" fill="#6690FF"/>
<path d="M9.99365 7.59095V21.4441C9.99586 21.996 10.2149 22.525 10.6036 22.9169C10.9923 23.3088 11.5195 23.5322 12.0714 23.5389H12.9148C13.4698 23.538 14.0017 23.3169 14.3939 22.9242C14.786 22.5314 15.0062 21.9991 15.0062 21.4441V7.59095C15.0058 7.03625 14.7853 6.50437 14.3933 6.11198C14.0012 5.71958 13.4695 5.49871 12.9148 5.4978H12.0697C11.5182 5.50455 10.9915 5.72778 10.6031 6.11935C10.2148 6.51092 9.99586 7.03945 9.99365 7.59095Z" fill="#6690FF"/>
</g>
<defs>
<clipPath id="clip0_983_1522">
<rect width="24" height="24" fill="white" transform="translate(0.5)"/>
</clipPath>
</defs>
</svg>
