<svg width="25" height="24" viewBox="0 0 25 24" fill="none" xmlns="http://www.w3.org/2000/svg">
<path fill-rule="evenodd" clip-rule="evenodd" d="M22.488 4.3L19.8213 1.64271C19.4078 1.23159 18.8486 1.00057 18.2656 1L6.73443 1C6.15159 1.00015 5.59242 1.2306 5.17871 1.64114L2.512 4.3C2.19108 4.62022 1.93651 5.00061 1.76285 5.41938C1.58919 5.83816 1.49987 6.28708 1.5 6.74043V19.5523C1.5025 20.4675 1.86783 21.3445 2.5159 21.9908C3.16397 22.6371 4.04188 23 4.95714 23H20.0429C20.9597 23 21.8391 22.6358 22.4874 21.9874C23.1358 21.3391 23.5 20.4597 23.5 19.5429V6.74043C23.5001 6.28708 23.4108 5.83816 23.2372 5.41938C23.0635 5.00061 22.8089 4.62022 22.488 4.3ZM12.5 16.7536C10.9568 16.754 9.47655 16.1419 8.38433 15.0517C7.2921 13.9616 6.67721 12.4825 6.67471 10.9393C6.67471 10.5888 6.81395 10.2526 7.06179 10.0048C7.30964 9.75695 7.64578 9.61771 7.99629 9.61771C8.34679 9.61771 8.68293 9.75695 8.93078 10.0048C9.17862 10.2526 9.31786 10.5888 9.31786 10.9393C9.33634 11.7708 9.67963 12.562 10.2742 13.1436C10.8688 13.7251 11.6675 14.0507 12.4992 14.0507C13.3309 14.0507 14.1296 13.7251 14.7242 13.1436C15.3188 12.562 15.6621 11.7708 15.6806 10.9393C15.6806 10.5884 15.82 10.2518 16.0681 10.0037C16.3162 9.75554 16.6528 9.61614 17.0037 9.61614C17.3546 9.61614 17.6912 9.75554 17.9393 10.0037C18.1875 10.2518 18.3269 10.5884 18.3269 10.9393C18.3244 12.4827 17.7093 13.9621 16.6167 15.0523C15.5241 16.1425 14.0435 16.7544 12.5 16.7536ZM7.52171 3.42157H17.5191C17.6761 3.42172 17.8312 3.45593 17.9736 3.52186C18.116 3.58779 18.2425 3.68386 18.3441 3.80343L20.5143 6.35857H4.23114L6.74543 3.75314C6.84597 3.64864 6.96651 3.56543 7.09987 3.50846C7.23324 3.4515 7.3767 3.42195 7.52171 3.42157Z" fill="#ccc"/>
</svg>
