<svg width="25" height="24" viewBox="0 0 25 24" fill="none" xmlns="http://www.w3.org/2000/svg">
<path d="M2.1 6.16667C2.1 4.56492 3.35733 3.6 4.64286 3.6H20.3571C21.9189 3.6 22.9 4.863 22.9 6.16667V12.5C22.9 12.9397 22.7314 13.1555 22.5584 13.281C22.3551 13.4285 22.0935 13.4833 21.9286 13.4833H16.3272C15.7505 13.4833 15.1902 13.675 14.7344 14.0283L5.60189 21.1066C5.35633 21.2969 5.05514 21.4 4.74479 21.4H4.64286C3.88403 21.4 3.30617 21.0861 2.87724 20.6758C2.47603 20.292 2.2201 19.836 2.1 19.5216V6.16667Z" fill="#6690FF" stroke="#6690FF" stroke-width="1.2" stroke-linejoin="round"/>
<path d="M22.7 13.8H16.5C16.4408 13.8 16.4041 13.8239 16.3894 13.8396L22.7 13.8ZM22.7 13.8V19.7245C22.7 20.3836 22.1485 21.0392 21.2842 21.1758C20.497 21.3002 19.3451 20.9691 18.3876 19.3465C17.7676 18.0699 16.6939 15.6707 16.3833 13.859C16.3824 13.8535 16.3824 13.8504 16.3825 13.849L22.7 13.8ZM16.3826 13.8481C16.3826 13.8481 16.3826 13.8484 16.3825 13.8488L16.3826 13.8481Z" stroke="#6690FF" stroke-width="1.6" stroke-linejoin="round"/>
<path d="M4.52502 8.71362H9.96074" stroke="white" stroke-width="2" stroke-linecap="round" stroke-linejoin="round"/>
<path d="M7.24292 6V11.4273" stroke="white" stroke-width="2" stroke-linecap="round" stroke-linejoin="round"/>
<path d="M14.5 8.90063H19.5" stroke="white" stroke-width="2" stroke-linecap="round" stroke-linejoin="round"/>
</svg>
