<svg width="25" height="24" viewBox="0 0 25 24" fill="none" xmlns="http://www.w3.org/2000/svg">
<g clip-path="url(#clip0_983_1541)">
<path d="M24.0491 5.67132L14.3857 0.473611C13.8058 0.162698 13.158 0 12.5 0C11.842 0 11.1942 0.162698 10.6143 0.473611L0.950857 5.67132C0.814629 5.74466 0.700789 5.8535 0.621412 5.98629C0.542035 6.11909 0.500081 6.2709 0.5 6.42561L0.5 7.45418C0.5 7.68151 0.590306 7.89953 0.751051 8.06027C0.911797 8.22102 1.12981 8.31133 1.35714 8.31133H23.6429C23.8702 8.31133 24.0882 8.22102 24.2489 8.06027C24.4097 7.89953 24.5 7.68151 24.5 7.45418V6.42561C24.4999 6.2709 24.458 6.11909 24.3786 5.98629C24.2992 5.8535 24.1854 5.74466 24.0491 5.67132Z" fill="#ccc"/>
<path d="M12.5 10.4148C12.9546 10.4148 13.3907 10.6155 13.7122 10.9727C14.0337 11.3299 14.2143 11.8144 14.2143 12.3196V17.0815C14.2143 17.5866 14.0337 18.0711 13.7122 18.4283C13.3907 18.7855 12.9546 18.9862 12.5 18.9862C12.0453 18.9862 11.6093 18.7855 11.2878 18.4283C10.9663 18.0711 10.7857 17.5866 10.7857 17.0815V12.3196C10.7857 11.8144 10.9663 11.3299 11.2878 10.9727C11.6093 10.6155 12.0453 10.4148 12.5 10.4148Z" fill="#ccc"/>
<path d="M20.324 10.4148C20.7787 10.4148 21.2147 10.6155 21.5362 10.9727C21.8577 11.3299 22.0383 11.8144 22.0383 12.3196V17.0815C22.0383 17.5866 21.8577 18.0711 21.5362 18.4283C21.2147 18.7855 20.7787 18.9862 20.324 18.9862C19.8694 18.9862 19.4333 18.7855 19.1118 18.4283C18.7904 18.0711 18.6097 17.5866 18.6097 17.0815V12.3196C18.6097 11.8144 18.7904 11.3299 19.1118 10.9727C19.4333 10.6155 19.8694 10.4148 20.324 10.4148Z" fill="#ccc"/>
<path d="M4.6726 10.4148C5.12726 10.4148 5.56329 10.6155 5.88478 10.9727C6.20627 11.3299 6.38688 11.8144 6.38688 12.3196V17.0815C6.38688 17.5866 6.20627 18.0711 5.88478 18.4283C5.56329 18.7855 5.12726 18.9862 4.6726 18.9862C4.21794 18.9862 3.78191 18.7855 3.46042 18.4283C3.13892 18.0711 2.95831 17.5866 2.95831 17.0815V12.3196C2.95831 11.8144 3.13892 11.3299 3.46042 10.9727C3.78191 10.6155 4.21794 10.4148 4.6726 10.4148Z" fill="#ccc"/>
<path d="M22.7069 20.4125H2.29314C1.30282 20.4125 0.5 21.2153 0.5 22.2056C0.5 23.1959 1.30282 23.9988 2.29314 23.9988H22.7069C23.6972 23.9988 24.5 23.1959 24.5 22.2056C24.5 21.2153 23.6972 20.4125 22.7069 20.4125Z" fill="#ccc"/>
</g>
<defs>
<clipPath id="clip0_983_1541">
<rect width="24" height="24" fill="white" transform="translate(0.5)"/>
</clipPath>
</defs>
</svg>
