<svg width="25" height="24" viewBox="0 0 25 24" fill="none" xmlns="http://www.w3.org/2000/svg">
<g clip-path="url(#clip0_983_1483)">
<mask id="mask0_983_1483" style="mask-type:alpha" maskUnits="userSpaceOnUse" x="0" y="0" width="25" height="24">
<rect x="0.5" width="24" height="24" fill="#D9D9D9"/>
</mask>
<g mask="url(#mask0_983_1483)">
<path fill-rule="evenodd" clip-rule="evenodd" d="M4.49986 3C3.70425 3 2.94122 3.31607 2.37864 3.87868C1.81606 4.44129 1.5 5.20435 1.5 6L1.5 8.00052H23.5V6C23.5 5.60603 23.4224 5.21593 23.2716 4.85195C23.1209 4.48797 22.8999 4.15726 22.6214 3.87868C22.3428 3.6001 22.0121 3.37913 21.6481 3.22836C21.2842 3.0776 20.8941 3 20.5001 3H4.49986ZM23.5 9.99948H1.5V18C1.5 18.394 1.57759 18.7841 1.72835 19.1481C1.87911 19.512 2.10008 19.8427 2.37864 20.1213C2.6572 20.3999 2.9879 20.6209 3.35186 20.7716C3.71582 20.9224 4.10591 21 4.49986 21H20.5001C20.8941 21 21.2842 20.9224 21.6481 20.7716C22.0121 20.6209 22.3428 20.3999 22.6214 20.1213C22.8999 19.8427 23.1209 19.512 23.2716 19.1481C23.4224 18.7841 23.5 18.394 23.5 18V9.99948ZM6.362 18.1289H9.79714C10.1981 18.1276 10.5823 17.9678 10.8658 17.6842C11.1494 17.4007 11.3092 17.0165 11.3104 16.6155C11.3096 16.2144 11.1499 15.8299 10.8663 15.5463C10.5827 15.2627 10.1982 15.103 9.79714 15.1021H6.362C5.96091 15.103 5.57648 15.2627 5.29286 15.5463C5.00925 15.8299 4.84954 16.2144 4.84871 16.6155C4.84996 17.0165 5.00979 17.4007 5.29332 17.6842C5.57685 17.9678 5.96103 18.1276 6.362 18.1289Z" fill="#6690FF"/>
</g>
</g>
<defs>
<clipPath id="clip0_983_1483">
<rect width="24" height="24" fill="white" transform="translate(0.5)"/>
</clipPath>
</defs>
</svg>
