<svg width="25" height="24" viewBox="0 0 25 24" fill="none" xmlns="http://www.w3.org/2000/svg">
<path d="M6.04531 17.8131C7.74219 19.9919 9.89375 21.3875 12.5 22C15.1062 21.3875 17.2578 19.9919 18.9547 17.8131C20.6516 15.6344 21.5 13.215 21.5 10.555V4.15L12.5 1L3.5 4.15V10.555C3.5 13.215 4.34844 15.6344 6.04531 17.8131Z" fill="#ccc"/>
<path d="M9.08054 9.31487C9.73361 9.31487 10.263 8.78548 10.263 8.13243C10.263 7.47939 9.73361 6.95 9.08054 6.95C8.42748 6.95 7.89806 7.47939 7.89806 8.13243C7.89806 8.78548 8.42748 9.31487 9.08054 9.31487Z" fill="white" stroke="white" stroke-width="0.1"/>
<path d="M12.4996 9.31487C13.1527 9.31487 13.6821 8.78548 13.6821 8.13243C13.6821 7.47939 13.1527 6.95 12.4996 6.95C11.8465 6.95 11.3171 7.47939 11.3171 8.13243C11.3171 8.78548 11.8465 9.31487 12.4996 9.31487Z" fill="white" stroke="white" stroke-width="0.1"/>
<path d="M15.9078 9.31487C16.5608 9.31487 17.0902 8.78548 17.0902 8.13243C17.0902 7.47939 16.5608 6.95 15.9078 6.95C15.2547 6.95 14.7253 7.47939 14.7253 8.13243C14.7253 8.78548 15.2547 9.31487 15.9078 9.31487Z" fill="white" stroke="white" stroke-width="0.1"/>
<path d="M9.08054 12.7337C9.73361 12.7337 10.263 12.2043 10.263 11.5513C10.263 10.8982 9.73361 10.3688 9.08054 10.3688C8.42748 10.3688 7.89806 10.8982 7.89806 11.5513C7.89806 12.2043 8.42748 12.7337 9.08054 12.7337Z" fill="white" stroke="white" stroke-width="0.1"/>
<path d="M12.4996 12.7337C13.1527 12.7337 13.6821 12.2043 13.6821 11.5513C13.6821 10.8982 13.1527 10.3688 12.4996 10.3688C11.8465 10.3688 11.3171 10.8982 11.3171 11.5513C11.3171 12.2043 11.8465 12.7337 12.4996 12.7337Z" fill="white" stroke="white" stroke-width="0.1"/>
<path d="M9.08054 16.1418C9.73361 16.1418 10.263 15.6124 10.263 14.9593C10.263 14.3063 9.73361 13.7769 9.08054 13.7769C8.42748 13.7769 7.89806 14.3063 7.89806 14.9593C7.89806 15.6124 8.42748 16.1418 9.08054 16.1418Z" fill="white" stroke="white" stroke-width="0.1"/>
<path d="M12.4996 13.7769C11.8464 13.7769 11.3171 14.3062 11.3171 14.9593C11.3171 15.6125 11.8464 16.1418 12.4996 16.1418C13.1526 16.1418 13.6819 15.6127 13.6821 14.9598C13.6931 14.3057 13.1629 13.7769 12.4996 13.7769ZM12.4996 15.6535C12.1174 15.6535 11.8054 15.3416 11.8054 14.9593C11.8054 14.5771 12.1174 14.2652 12.4996 14.2652C12.8819 14.2652 13.1938 14.5771 13.1938 14.9593C13.1938 15.3416 12.8819 15.6535 12.4996 15.6535Z" fill="white" stroke="white" stroke-width="0.1"/>
<path d="M15.9187 13.7769C15.2655 13.7769 14.7362 14.3062 14.7362 14.9593C14.7362 15.6125 15.2655 16.1418 15.9187 16.1418C16.5717 16.1418 17.1009 15.6127 17.1012 14.9598C17.1122 14.3054 16.5709 13.7769 15.9187 13.7769ZM15.9187 15.6535C15.5364 15.6535 15.2245 15.3416 15.2245 14.9593C15.2245 14.5771 15.5364 14.2652 15.9187 14.2652C16.3009 14.2652 16.6129 14.5771 16.6129 14.9593C16.6129 15.3416 16.3009 15.6535 15.9187 15.6535Z" fill="white" stroke="white" stroke-width="0.1"/>
<path d="M15.9187 10.3688C15.2655 10.3688 14.7362 10.8981 14.7362 11.5513C14.7362 12.2044 15.2655 12.7337 15.9187 12.7337C16.5719 12.7337 17.1012 12.2044 17.1012 11.5513C17.1012 10.8981 16.5719 10.3688 15.9187 10.3688ZM15.9187 12.2454C15.5364 12.2454 15.2245 11.9335 15.2245 11.5513C15.2245 11.169 15.5364 10.8571 15.9187 10.8571C16.3009 10.8571 16.6129 11.169 16.6129 11.5513C16.6129 11.9335 16.3009 12.2454 15.9187 12.2454Z" fill="white" stroke="white" stroke-width="0.1"/>
</svg>
