<svg width="15" height="14" viewBox="0 0 15 14" fill="none" xmlns="http://www.w3.org/2000/svg">
<path fill-rule="evenodd" clip-rule="evenodd" d="M12.8095 0H2.52383C2.2965 0 2.07848 0.0921872 1.91774 0.256282C1.75699 0.420376 1.66669 0.642936 1.66669 0.875V13.125C1.66669 13.3571 1.75699 13.5796 1.91774 13.7437C2.07848 13.9078 2.2965 14 2.52383 14H12.8095C13.0369 14 13.2549 13.9078 13.4156 13.7437C13.5764 13.5796 13.6667 13.3571 13.6667 13.125V0.875C13.6667 0.642936 13.5764 0.420376 13.4156 0.256282C13.2549 0.0921872 13.0369 0 12.8095 0ZM9.38097 7.875H5.9524C5.72507 7.875 5.50706 7.78281 5.34631 7.61872C5.18556 7.45462 5.09526 7.23206 5.09526 7C5.09526 6.76794 5.18556 6.54538 5.34631 6.38128C5.50706 6.21719 5.72507 6.125 5.9524 6.125H9.38097C9.6083 6.125 9.82632 6.21719 9.98707 6.38128C10.1478 6.54538 10.2381 6.76794 10.2381 7C10.2381 7.23206 10.1478 7.45462 9.98707 7.61872C9.82632 7.78281 9.6083 7.875 9.38097 7.875ZM9.38097 4.375H5.9524C5.72507 4.375 5.50706 4.28281 5.34631 4.11872C5.18556 3.95462 5.09526 3.73206 5.09526 3.5C5.09526 3.26794 5.18556 3.04538 5.34631 2.88128C5.50706 2.71719 5.72507 2.625 5.9524 2.625H9.38097C9.6083 2.625 9.82632 2.71719 9.98707 2.88128C10.1478 3.04538 10.2381 3.26794 10.2381 3.5C10.2381 3.73206 10.1478 3.95462 9.98707 4.11872C9.82632 4.28281 9.6083 4.375 9.38097 4.375ZM9.38097 11.375H5.9524C5.72507 11.375 5.50706 11.2828 5.34631 11.1187C5.18556 10.9546 5.09526 10.7321 5.09526 10.5C5.09526 10.2679 5.18556 10.0454 5.34631 9.88128C5.50706 9.71719 5.72507 9.625 5.9524 9.625H9.38097C9.6083 9.625 9.82632 9.71719 9.98707 9.88128C10.1478 10.0454 10.2381 10.2679 10.2381 10.5C10.2381 10.7321 10.1478 10.9546 9.98707 11.1187C9.82632 11.2828 9.6083 11.375 9.38097 11.375Z" fill="#3366FF"/>
</svg>
