<svg width="25" height="25" viewBox="0 0 25 25" fill="none" xmlns="http://www.w3.org/2000/svg">
<path d="M16.9304 0.983739C16.575 0.719843 16.1686 0.726453 15.8562 0.930817C15.5544 1.12827 15.3645 1.49245 15.3645 1.90485V22.4346C15.3645 23.8151 16.7742 24.6451 18.0348 24.2983C18.708 24.113 19.1905 23.7053 19.4749 23.1664C19.7564 22.6327 19.8361 21.9864 19.7414 21.3241L18.9249 15.608C19.8481 15.396 20.5657 15.1229 21.0775 14.8853C21.7827 14.5578 22.1451 13.8296 22.1121 13.0863C21.828 6.69625 19.0032 2.5227 16.9304 0.983739Z" fill="white"/>
<path d="M4.63753 0.860088C3.78536 0.860088 3.04038 1.45253 2.89609 2.30578C2.65534 3.72944 2.31817 6.21896 2.34529 8.8812C2.36036 10.3604 3.35047 11.6899 4.90453 12.0382C5.13098 12.089 5.36917 12.1359 5.61646 12.1764L4.65709 21.3142C4.51341 22.6828 5.36568 24.0582 6.78427 24.2556C6.9675 24.2811 7.14271 24.2978 7.29188 24.2978C7.4411 24.2978 7.6163 24.2811 7.79953 24.2556C9.21813 24.0582 10.0704 22.6828 9.92672 21.3142L8.96735 12.1764C9.21469 12.136 9.45292 12.089 9.67943 12.0382C11.2334 11.6899 12.2234 10.3604 12.2385 8.88135C12.2656 6.21875 11.9279 3.72891 11.6868 2.30529C11.5423 1.45227 10.7975 0.860088 9.94552 0.860088H9.7938C9.72271 0.860088 9.65469 0.889172 9.60552 0.940588C9.55641 0.99201 9.53047 1.06128 9.5337 1.13233L9.76495 6.22042C9.7813 6.57964 9.50334 6.88406 9.14417 6.90036C8.78495 6.91672 8.48052 6.63875 8.46422 6.27958L8.22917 1.10868C8.22287 0.969599 8.10823 0.860088 7.96901 0.860088H6.61433C6.47511 0.860088 6.36047 0.969599 6.35417 1.10868L6.11912 6.27958C6.10281 6.63875 5.79839 6.91672 5.43917 6.90036C5.08 6.88406 4.80205 6.57964 4.81838 6.22042L5.04966 1.13233C5.05289 1.06128 5.02692 0.99201 4.97779 0.940588C4.92865 0.889172 4.86063 0.860088 4.78951 0.860088H4.63753Z" fill="white"/>
</svg>
