<svg width="14" height="14" viewBox="0 0 14 14" fill="none" xmlns="http://www.w3.org/2000/svg">
<g clip-path="url(#clip0_983_1013)">
<g clip-path="url(#clip1_983_1013)">
<path d="M0.844971 11.949V10.943C0.863627 10.5765 0.982115 10.2221 1.18762 9.91804C1.39313 9.61401 1.67784 9.37194 2.01097 9.218C5.21266 7.93196 8.78729 7.93196 11.989 9.218C12.3221 9.37194 12.6068 9.61401 12.8123 9.91804C13.0178 10.2221 13.1363 10.5765 13.155 10.943V11.949C13.1548 12.2186 13.1016 12.4856 12.9982 12.7347C12.8948 12.9837 12.7434 13.2099 12.5525 13.4004C12.3617 13.5909 12.1352 13.7419 11.8859 13.8448C11.6367 13.9476 11.3696 14.0004 11.1 14H2.89997C2.63033 14.0004 2.36326 13.9476 2.11401 13.8448C1.86477 13.7419 1.63825 13.5909 1.4474 13.4004C1.25655 13.2099 1.10511 12.9837 1.00174 12.7347C0.898375 12.4856 0.845102 12.2186 0.844971 11.949ZM6.99997 1.46266e-07C6.32352 -0.000197648 5.6622 0.200214 5.09965 0.575888C4.5371 0.951562 4.09859 1.48562 3.83959 2.11053C3.58058 2.73544 3.51271 3.42311 3.64456 4.0866C3.77641 4.75008 4.10206 5.35956 4.58031 5.83795C5.05857 6.31635 5.66795 6.64217 6.33139 6.77421C6.99484 6.90625 7.68254 6.83859 8.30752 6.57976C8.9325 6.32094 9.46669 5.88259 9.84253 5.32015C10.2184 4.75772 10.419 4.09646 10.419 3.42C10.4191 2.97093 10.3308 2.52623 10.159 2.1113C9.98724 1.69637 9.73542 1.31934 9.41792 1.00176C9.10043 0.684166 8.72347 0.432235 8.3086 0.260352C7.89372 0.0884683 7.44904 1.27058e-07 6.99997 1.46266e-07Z" fill="#CCCCCC"/>
</g>
</g>
<defs>
<clipPath id="clip0_983_1013">
<rect width="14" height="14" fill="white"/>
</clipPath>
<clipPath id="clip1_983_1013">
<rect width="14" height="14" fill="white"/>
</clipPath>
</defs>
</svg>
