<svg width="15" height="14" viewBox="0 0 15 14" fill="none" xmlns="http://www.w3.org/2000/svg">
<g clip-path="url(#clip0_983_999)">
<path d="M0.868375 3.851V3.863L6.76837 6.554H6.77437C6.94977 6.63565 7.1409 6.67795 7.33437 6.67795C7.52785 6.67795 7.71898 6.63565 7.89437 6.554H7.90037L13.8004 3.863V3.851C13.9092 3.81505 14.0043 3.74659 14.073 3.65485C14.1417 3.56312 14.1805 3.45253 14.1844 3.338C14.1807 3.22261 14.1413 3.11121 14.0716 3.01915C14.0019 2.92709 13.9054 2.85891 13.7954 2.824L7.90338 0.124H7.89237C7.71734 0.0423261 7.52653 0 7.33337 0C7.14022 0 6.94941 0.0423261 6.77437 0.124H6.76337L0.873375 2.824C0.763328 2.85891 0.666818 2.92709 0.597147 3.01915C0.527476 3.11121 0.488075 3.22261 0.484375 3.338C0.488207 3.45253 0.52708 3.56312 0.595747 3.65485C0.664415 3.74659 0.759571 3.81505 0.868375 3.851V3.851Z" fill="#3366FF"/>
<path d="M13.7934 6.48505L12.6404 5.95605C10.8334 6.78305 8.36338 7.90905 8.33338 7.91905C7.69116 8.17436 6.97561 8.17436 6.33338 7.91905C6.30538 7.91005 3.83938 6.78505 2.03338 5.95705L0.873382 6.48505C0.761607 6.51636 0.663076 6.58323 0.592709 6.67555C0.522341 6.76786 0.48397 6.88059 0.483405 6.99667C0.48284 7.11274 0.520112 7.22584 0.589577 7.31884C0.659042 7.41183 0.756917 7.47966 0.868382 7.51205V7.52305L6.76838 10.2151H6.77438C6.94978 10.2967 7.14091 10.339 7.33438 10.339C7.52785 10.339 7.71898 10.2967 7.89438 10.2151H7.90038L13.8004 7.52305V7.51205C13.912 7.4802 14.0102 7.41285 14.0801 7.32019C14.15 7.22754 14.1878 7.11463 14.1878 6.99855C14.1878 6.88248 14.15 6.76957 14.0801 6.67692C14.0102 6.58426 13.912 6.51691 13.8004 6.48505H13.7934Z" fill="#3366FF"/>
<path d="M13.7934 10.1479L12.6404 9.6189C10.8334 10.4469 8.36335 11.5729 8.33335 11.5819C7.69138 11.8385 6.97532 11.8385 6.33335 11.5819C6.30535 11.5729 3.83935 10.4479 2.03335 9.6199L0.873354 10.1479C0.761744 10.1795 0.66344 10.2466 0.59326 10.339C0.523079 10.4313 0.484823 10.544 0.484259 10.66C0.483695 10.776 0.520852 10.8891 0.590131 10.9821C0.65941 11.0752 0.757057 11.1432 0.868354 11.1759V11.1869L6.76835 13.8779H6.77435C6.94975 13.9595 7.14088 14.0018 7.33435 14.0018C7.52782 14.0018 7.71895 13.9595 7.89435 13.8779H7.90035L13.8004 11.1869V11.1759C13.9118 11.1437 14.0098 11.0762 14.0795 10.9835C14.1492 10.8908 14.1869 10.7779 14.1869 10.6619C14.1869 10.5459 14.1492 10.433 14.0795 10.3403C14.0098 10.2476 13.9118 10.1801 13.8004 10.1479H13.7934Z" fill="#3366FF"/>
</g>
<defs>
<clipPath id="clip0_983_999">
<rect width="14" height="14" fill="white" transform="translate(0.333374)"/>
</clipPath>
</defs>
</svg>
